# xmcd
#
# Track frame offsets:
#	150
#	17240
#	38982
#	60397
#	77855
#	95317
#	117332
#	133462
#	151927
#	167510
#
# Disc length: 2582 seconds
#
# Revision: 1
# Processed by: cddbd v1.5.1PL0 Copyright (c) Steve Scherf et al.
# Submitted via: CDex 1.50Beta5
#
DISCID=7c0a140a
DTITLE=山口百恵 - crystal
DYEAR=1900
DGENRE=
TTITLE0=横須賀ストーリー
TTITLE1=乙女座宮
TTITLE2=夢先案内人
TTITLE3=秋桜
TTITLE4=いい日旅立ち
TTITLE5=しなやかに歌って
TTITLE6=パールカラーにゆれて
TTITLE7=美・サイレント
TTITLE8=プレイバック・part2
TTITLE9=さよならの向こう側
EXTD=
EXTT0=
EXTT1=
EXTT2=
EXTT3=
EXTT4=
EXTT5=
EXTT6=
EXTT7=
EXTT8=
EXTT9=
PLAYORDER=
